<?xml version="1.0" encoding="utf-8" standalone="no"?>
<!DOCTYPE svg PUBLIC "-//W3C//DTD SVG 1.1//EN"
  "http://www.w3.org/Graphics/SVG/1.1/DTD/svg11.dtd">
<svg xmlns:xlink="http://www.w3.org/1999/xlink" width="490.732812pt" height="377.130313pt" viewBox="0 0 490.732812 377.130313" xmlns="http://www.w3.org/2000/svg" version="1.1">
 <metadata>
  <rdf:RDF xmlns:dc="http://purl.org/dc/elements/1.1/" xmlns:cc="http://creativecommons.org/ns#" xmlns:rdf="http://www.w3.org/1999/02/22-rdf-syntax-ns#">
   <cc:Work>
    <dc:type rdf:resource="http://purl.org/dc/dcmitype/StillImage"/>
    <dc:date>2024-11-07T16:48:48.391513</dc:date>
    <dc:format>image/svg+xml</dc:format>
    <dc:creator>
     <cc:Agent>
      <dc:title>Matplotlib v3.8.4, https://matplotlib.org/</dc:title>
     </cc:Agent>
    </dc:creator>
   </cc:Work>
  </rdf:RDF>
 </metadata>
 <defs>
  <style type="text/css">*{stroke-linejoin: round; stroke-linecap: butt}</style>
 </defs>
 <g id="figure_1">
  <g id="patch_1">
   <path d="M 0 377.130313 
L 490.732812 377.130313 
L 490.732812 0 
L 0 0 
z
" style="fill: #ffffff"/>
  </g>
  <g id="axes_1">
   <g id="patch_2">
    <path d="M 37.132812 353.76 
L 483.532812 353.76 
L 483.532812 21.12 
L 37.132812 21.12 
z
" style="fill: #ffffff"/>
   </g>
   <g id="matplotlib.axis_1">
    <g id="xtick_1">
     <g id="line2d_1">
      <defs>
       <path id="m88420c13b4" d="M 0 0 
L 0 3.5 
" style="stroke: #000000; stroke-width: 0.8"/>
      </defs>
      <g>
       <use xlink:href="#m88420c13b4" x="57.423722" y="353.76" style="stroke: #000000; stroke-width: 0.8"/>
      </g>
     </g>
     <g id="text_1">
      <!-- 0 -->
      <g transform="translate(55.078409 367.36) scale(0.1 -0.1)">
       <defs>
        <path id="STFangsong-30" d="M 1517 4064 
Q 2048 4064 2435 3465 
Q 2822 2867 2822 1978 
Q 2822 1094 2435 496 
Q 2048 -102 1517 -102 
Q 1005 -102 608 490 
Q 211 1082 211 1978 
Q 211 2867 598 3465 
Q 986 4064 1517 4064 
z
M 1517 45 
Q 1990 45 2172 515 
Q 2355 986 2355 1978 
Q 2355 2970 2172 3443 
Q 1990 3917 1517 3917 
Q 1043 3917 860 3443 
Q 678 2970 678 1978 
Q 678 45 1517 45 
z
" transform="scale(0.015625)"/>
       </defs>
       <use xlink:href="#STFangsong-30"/>
      </g>
     </g>
    </g>
    <g id="xtick_2">
     <g id="line2d_2">
      <g>
       <use xlink:href="#m88420c13b4" x="138.587358" y="353.76" style="stroke: #000000; stroke-width: 0.8"/>
      </g>
     </g>
     <g id="text_2">
      <!-- 2 -->
      <g transform="translate(136.242045 367.36) scale(0.1 -0.1)">
       <defs>
        <path id="STFangsong-32" d="M 2726 -19 
Q 2266 0 1421 0 
Q 595 0 141 -19 
Q 262 230 448 454 
Q 634 678 1043 1088 
Q 1638 1683 1913 2102 
Q 2189 2522 2189 2950 
Q 2189 3302 1968 3520 
Q 1747 3738 1421 3738 
Q 1101 3738 838 3517 
Q 576 3296 474 2893 
L 326 2918 
Q 429 3462 755 3763 
Q 1082 4064 1549 4064 
Q 2016 4064 2342 3753 
Q 2669 3443 2669 3008 
Q 2669 2573 2365 2192 
Q 2061 1811 1446 1242 
Q 1120 941 634 339 
L 2138 339 
Q 2381 339 2480 425 
Q 2579 512 2688 800 
L 2822 800 
L 2726 -19 
z
" transform="scale(0.015625)"/>
       </defs>
       <use xlink:href="#STFangsong-32"/>
      </g>
     </g>
    </g>
    <g id="xtick_3">
     <g id="line2d_3">
      <g>
       <use xlink:href="#m88420c13b4" x="219.750994" y="353.76" style="stroke: #000000; stroke-width: 0.8"/>
      </g>
     </g>
     <g id="text_3">
      <!-- 4 -->
      <g transform="translate(217.405682 367.36) scale(0.1 -0.1)">
       <defs>
        <path id="STFangsong-34" d="M 2086 4064 
L 2240 4064 
L 2240 1408 
L 2918 1408 
L 2918 1114 
L 2240 1114 
L 2240 -102 
L 1818 -102 
L 1818 1114 
L 179 1114 
L 179 1325 
L 941 2438 
L 2086 4064 
z
M 1818 1408 
L 1818 3373 
Q 947 2163 486 1408 
L 1818 1408 
z
" transform="scale(0.015625)"/>
       </defs>
       <use xlink:href="#STFangsong-34"/>
      </g>
     </g>
    </g>
    <g id="xtick_4">
     <g id="line2d_4">
      <g>
       <use xlink:href="#m88420c13b4" x="300.914631" y="353.76" style="stroke: #000000; stroke-width: 0.8"/>
      </g>
     </g>
     <g id="text_4">
      <!-- 6 -->
      <g transform="translate(298.569318 367.36) scale(0.1 -0.1)">
       <defs>
        <path id="STFangsong-36" d="M 2458 4083 
L 2509 3962 
Q 1709 3661 1232 2934 
Q 755 2208 755 1376 
Q 755 826 985 432 
Q 1216 38 1549 38 
Q 2266 38 2266 1178 
Q 2266 1658 2080 1926 
Q 1894 2195 1613 2195 
Q 1504 2195 1402 2150 
L 1331 2253 
Q 1536 2342 1747 2342 
Q 2170 2342 2448 2022 
Q 2726 1702 2726 1146 
Q 2726 614 2396 256 
Q 2067 -102 1542 -102 
Q 998 -102 656 323 
Q 314 749 314 1478 
Q 314 2362 893 3088 
Q 1472 3814 2458 4083 
z
" transform="scale(0.015625)"/>
       </defs>
       <use xlink:href="#STFangsong-36"/>
      </g>
     </g>
    </g>
    <g id="xtick_5">
     <g id="line2d_5">
      <g>
       <use xlink:href="#m88420c13b4" x="382.078267" y="353.76" style="stroke: #000000; stroke-width: 0.8"/>
      </g>
     </g>
     <g id="text_5">
      <!-- 8 -->
      <g transform="translate(379.732955 367.36) scale(0.1 -0.1)">
       <defs>
        <path id="STFangsong-38" d="M 1267 1997 
Q 493 2381 493 3040 
Q 493 3437 809 3750 
Q 1126 4064 1555 4064 
Q 2042 4064 2342 3801 
Q 2643 3539 2643 3142 
Q 2643 2797 2451 2585 
Q 2259 2374 1901 2195 
Q 2490 1914 2656 1626 
Q 2822 1338 2822 1050 
Q 2822 582 2473 240 
Q 2125 -102 1606 -102 
Q 1069 -102 749 195 
Q 429 493 429 947 
Q 429 1222 557 1488 
Q 685 1754 1267 1997 
z
M 1760 2272 
Q 2022 2394 2163 2627 
Q 2304 2861 2304 3136 
Q 2304 3475 2109 3696 
Q 1914 3917 1568 3917 
Q 1254 3917 1056 3702 
Q 858 3488 858 3174 
Q 858 3014 915 2860 
Q 973 2707 1232 2528 
Q 1491 2349 1760 2272 
z
M 1421 1926 
Q 1094 1766 953 1532 
Q 813 1299 813 909 
Q 813 518 1037 284 
Q 1261 51 1600 51 
Q 1952 51 2185 284 
Q 2419 518 2419 883 
Q 2419 1267 2185 1497 
Q 1952 1728 1421 1926 
z
" transform="scale(0.015625)"/>
       </defs>
       <use xlink:href="#STFangsong-38"/>
      </g>
     </g>
    </g>
    <g id="xtick_6">
     <g id="line2d_6">
      <g>
       <use xlink:href="#m88420c13b4" x="463.241903" y="353.76" style="stroke: #000000; stroke-width: 0.8"/>
      </g>
     </g>
     <g id="text_6">
      <!-- 10 -->
      <g transform="translate(458.551278 367.36) scale(0.1 -0.1)">
       <defs>
        <path id="STFangsong-31" d="M 2272 -19 
Q 1939 0 1523 0 
Q 1107 0 774 -19 
L 774 83 
L 1107 141 
Q 1331 186 1331 390 
L 1331 3552 
L 570 3059 
L 480 3181 
Q 922 3469 1542 4064 
L 1754 4064 
L 1754 390 
Q 1754 173 1978 134 
L 2272 83 
L 2272 -19 
z
" transform="scale(0.015625)"/>
       </defs>
       <use xlink:href="#STFangsong-31"/>
       <use xlink:href="#STFangsong-30" x="46.899994"/>
      </g>
     </g>
    </g>
   </g>
   <g id="matplotlib.axis_2">
    <g id="ytick_1">
     <g id="line2d_7">
      <defs>
       <path id="ma29f5fa279" d="M 0 0 
L -3.5 0 
" style="stroke: #000000; stroke-width: 0.8"/>
      </defs>
      <g>
       <use xlink:href="#ma29f5fa279" x="37.132812" y="338.733098" style="stroke: #000000; stroke-width: 0.8"/>
      </g>
     </g>
     <g id="text_7">
      <!-- −1.00 -->
      <g transform="translate(7.2 342.033098) scale(0.1 -0.1)">
       <defs>
        <path id="STFangsong-2212" d="M 454 2131 
L 3814 2131 
L 3814 1856 
L 454 1856 
L 454 2131 
z
" transform="scale(0.015625)"/>
        <path id="STFangsong-2e" d="M 704 -102 
Q 563 -102 467 -6 
Q 371 90 371 230 
Q 371 371 467 467 
Q 563 563 704 563 
Q 845 563 941 467 
Q 1037 371 1037 230 
Q 1037 90 941 -6 
Q 845 -102 704 -102 
z
" transform="scale(0.015625)"/>
       </defs>
       <use xlink:href="#STFangsong-2212"/>
       <use xlink:href="#STFangsong-31" x="66.699997"/>
       <use xlink:href="#STFangsong-2e" x="113.599991"/>
       <use xlink:href="#STFangsong-30" x="135.499985"/>
       <use xlink:href="#STFangsong-30" x="182.399979"/>
      </g>
     </g>
    </g>
    <g id="ytick_2">
     <g id="line2d_8">
      <g>
       <use xlink:href="#ma29f5fa279" x="37.132812" y="300.915643" style="stroke: #000000; stroke-width: 0.8"/>
      </g>
     </g>
     <g id="text_8">
      <!-- −0.75 -->
      <g transform="translate(7.2 304.215643) scale(0.1 -0.1)">
       <defs>
        <path id="STFangsong-37" d="M 294 4000 
L 2758 4000 
L 2758 3891 
Q 2541 3507 1981 1929 
Q 1421 352 1363 0 
L 1152 0 
Q 1459 1325 2387 3610 
L 659 3610 
Q 499 3610 486 3526 
L 435 3258 
L 294 3258 
L 294 4000 
z
" transform="scale(0.015625)"/>
        <path id="STFangsong-35" d="M 2432 3622 
L 1536 3622 
Q 1037 3622 986 3603 
L 902 2432 
Q 1184 2566 1478 2566 
Q 2003 2566 2368 2208 
Q 2733 1850 2733 1274 
Q 2733 634 2281 266 
Q 1830 -102 1254 -102 
Q 934 -102 665 10 
Q 397 122 397 256 
Q 397 320 454 387 
Q 512 454 614 454 
Q 685 454 730 422 
Q 1178 83 1453 83 
Q 1811 83 2086 393 
Q 2362 704 2362 1126 
Q 2362 1574 2083 1872 
Q 1805 2170 1395 2170 
Q 1216 2170 1059 2112 
Q 902 2054 832 1952 
L 723 1952 
L 845 4000 
L 1542 4000 
Q 2022 4000 2176 4013 
Q 2330 4026 2394 4109 
L 2490 4109 
L 2432 3622 
z
" transform="scale(0.015625)"/>
       </defs>
       <use xlink:href="#STFangsong-2212"/>
       <use xlink:href="#STFangsong-30" x="66.699997"/>
       <use xlink:href="#STFangsong-2e" x="113.599991"/>
       <use xlink:href="#STFangsong-37" x="135.499985"/>
       <use xlink:href="#STFangsong-35" x="182.399979"/>
      </g>
     </g>
    </g>
    <g id="ytick_3">
     <g id="line2d_9">
      <g>
       <use xlink:href="#ma29f5fa279" x="37.132812" y="263.098189" style="stroke: #000000; stroke-width: 0.8"/>
      </g>
     </g>
     <g id="text_9">
      <!-- −0.50 -->
      <g transform="translate(7.2 266.398189) scale(0.1 -0.1)">
       <use xlink:href="#STFangsong-2212"/>
       <use xlink:href="#STFangsong-30" x="66.699997"/>
       <use xlink:href="#STFangsong-2e" x="113.599991"/>
       <use xlink:href="#STFangsong-35" x="135.499985"/>
       <use xlink:href="#STFangsong-30" x="182.399979"/>
      </g>
     </g>
    </g>
    <g id="ytick_4">
     <g id="line2d_10">
      <g>
       <use xlink:href="#ma29f5fa279" x="37.132812" y="225.280734" style="stroke: #000000; stroke-width: 0.8"/>
      </g>
     </g>
     <g id="text_10">
      <!-- −0.25 -->
      <g transform="translate(7.2 228.580734) scale(0.1 -0.1)">
       <use xlink:href="#STFangsong-2212"/>
       <use xlink:href="#STFangsong-30" x="66.699997"/>
       <use xlink:href="#STFangsong-2e" x="113.599991"/>
       <use xlink:href="#STFangsong-32" x="135.499985"/>
       <use xlink:href="#STFangsong-35" x="182.399979"/>
      </g>
     </g>
    </g>
    <g id="ytick_5">
     <g id="line2d_11">
      <g>
       <use xlink:href="#ma29f5fa279" x="37.132812" y="187.463279" style="stroke: #000000; stroke-width: 0.8"/>
      </g>
     </g>
     <g id="text_11">
      <!-- 0.00 -->
      <g transform="translate(13.870313 190.763279) scale(0.1 -0.1)">
       <use xlink:href="#STFangsong-30"/>
       <use xlink:href="#STFangsong-2e" x="46.899994"/>
       <use xlink:href="#STFangsong-30" x="68.799988"/>
       <use xlink:href="#STFangsong-30" x="115.699982"/>
      </g>
     </g>
    </g>
    <g id="ytick_6">
     <g id="line2d_12">
      <g>
       <use xlink:href="#ma29f5fa279" x="37.132812" y="149.645824" style="stroke: #000000; stroke-width: 0.8"/>
      </g>
     </g>
     <g id="text_12">
      <!-- 0.25 -->
      <g transform="translate(13.870313 152.945824) scale(0.1 -0.1)">
       <use xlink:href="#STFangsong-30"/>
       <use xlink:href="#STFangsong-2e" x="46.899994"/>
       <use xlink:href="#STFangsong-32" x="68.799988"/>
       <use xlink:href="#STFangsong-35" x="115.699982"/>
      </g>
     </g>
    </g>
    <g id="ytick_7">
     <g id="line2d_13">
      <g>
       <use xlink:href="#ma29f5fa279" x="37.132812" y="111.82837" style="stroke: #000000; stroke-width: 0.8"/>
      </g>
     </g>
     <g id="text_13">
      <!-- 0.50 -->
      <g transform="translate(13.870313 115.12837) scale(0.1 -0.1)">
       <use xlink:href="#STFangsong-30"/>
       <use xlink:href="#STFangsong-2e" x="46.899994"/>
       <use xlink:href="#STFangsong-35" x="68.799988"/>
       <use xlink:href="#STFangsong-30" x="115.699982"/>
      </g>
     </g>
    </g>
    <g id="ytick_8">
     <g id="line2d_14">
      <g>
       <use xlink:href="#ma29f5fa279" x="37.132812" y="74.010915" style="stroke: #000000; stroke-width: 0.8"/>
      </g>
     </g>
     <g id="text_14">
      <!-- 0.75 -->
      <g transform="translate(13.870313 77.310915) scale(0.1 -0.1)">
       <use xlink:href="#STFangsong-30"/>
       <use xlink:href="#STFangsong-2e" x="46.899994"/>
       <use xlink:href="#STFangsong-37" x="68.799988"/>
       <use xlink:href="#STFangsong-35" x="115.699982"/>
      </g>
     </g>
    </g>
    <g id="ytick_9">
     <g id="line2d_15">
      <g>
       <use xlink:href="#ma29f5fa279" x="37.132812" y="36.19346" style="stroke: #000000; stroke-width: 0.8"/>
      </g>
     </g>
     <g id="text_15">
      <!-- 1.00 -->
      <g transform="translate(13.870313 39.49346) scale(0.1 -0.1)">
       <use xlink:href="#STFangsong-31"/>
       <use xlink:href="#STFangsong-2e" x="46.899994"/>
       <use xlink:href="#STFangsong-30" x="68.799988"/>
       <use xlink:href="#STFangsong-30" x="115.699982"/>
      </g>
     </g>
    </g>
   </g>
   <g id="line2d_16">
    <path d="M 57.423722 187.463279 
L 61.522895 172.20947 
L 65.622069 157.111163 
L 69.721242 142.322277 
L 73.820416 127.993575 
L 77.919589 114.271129 
L 82.018763 101.294831 
L 86.117936 89.196966 
L 90.21711 78.100864 
L 94.316284 68.119642 
L 98.415457 59.355053 
L 102.514631 51.896447 
L 106.613804 45.819859 
L 110.712978 41.187237 
L 114.812151 38.045806 
L 118.911325 36.427592 
L 123.010498 36.349091 
L 127.109672 37.811104 
L 131.208846 40.798727 
L 135.308019 45.281501 
L 139.407193 51.21373 
L 143.506366 58.534936 
L 147.60554 67.170485 
L 151.704713 77.032344 
L 155.803887 88.019976 
L 159.90306 100.021369 
L 164.002234 112.914178 
L 168.101408 126.566968 
L 172.200581 140.840557 
L 176.299755 155.589435 
L 180.398928 170.663247 
L 184.498102 185.908325 
L 188.597275 201.169255 
L 192.696449 216.29046 
L 196.795622 231.117791 
L 200.894796 245.500092 
L 204.99397 259.290744 
L 209.093143 272.34916 
L 213.192317 284.542219 
L 217.29149 295.745619 
L 221.390664 305.845149 
L 225.489837 314.73785 
L 229.589011 322.333068 
L 233.688184 328.553374 
L 237.787358 333.335355 
L 241.886532 336.630262 
L 245.985705 338.404506 
L 250.084879 338.64 
L 254.184052 337.334343 
L 258.283226 334.500844 
L 262.382399 330.168391 
L 266.481573 324.381149 
L 270.580746 317.198116 
L 274.67992 308.692519 
L 278.779093 298.951065 
L 282.878267 288.073065 
L 286.977441 276.169411 
L 291.076614 263.361454 
L 295.175788 249.779763 
L 299.274961 235.562795 
L 303.374135 220.855483 
L 307.473308 205.807758 
L 311.572482 190.573023 
L 315.671655 175.306586 
L 319.770829 160.164079 
L 323.870003 145.29987 
L 327.969176 130.86549 
L 332.06835 117.008089 
L 336.167523 103.868935 
L 340.266697 91.581971 
L 344.36587 80.272457 
L 348.465044 70.055686 
L 352.564217 61.035811 
L 356.663391 53.304784 
L 360.762565 46.941419 
L 364.861738 42.010585 
L 368.960912 38.562549 
L 373.060085 36.632462 
L 377.159259 36.24 
L 381.258432 37.389164 
L 385.357606 40.068238 
L 389.456779 44.249912 
L 393.555953 49.891556 
L 397.655127 56.935657 
L 401.7543 65.310404 
L 405.853474 74.930423 
L 409.952647 85.697643 
L 414.051821 97.502299 
L 418.150994 110.224051 
L 422.250168 123.733208 
L 426.349341 137.892052 
L 430.448515 152.556244 
L 434.547689 167.576292 
L 438.646862 182.799074 
L 442.746036 198.069405 
L 446.845209 213.231614 
L 450.944383 228.13113 
L 455.043556 242.616063 
L 459.14273 256.538749 
L 463.241903 269.757254 
" clip-path="url(#p7ec7bf813a)" style="fill: none; stroke: #1f77b4; stroke-width: 1.5; stroke-linecap: square"/>
   </g>
   <g id="patch_3">
    <path d="M 37.132812 353.76 
L 37.132812 21.12 
" style="fill: none; stroke: #000000; stroke-width: 0.8; stroke-linejoin: miter; stroke-linecap: square"/>
   </g>
   <g id="patch_4">
    <path d="M 483.532812 353.76 
L 483.532812 21.12 
" style="fill: none; stroke: #000000; stroke-width: 0.8; stroke-linejoin: miter; stroke-linecap: square"/>
   </g>
   <g id="patch_5">
    <path d="M 37.132812 353.76 
L 483.532812 353.76 
" style="fill: none; stroke: #000000; stroke-width: 0.8; stroke-linejoin: miter; stroke-linecap: square"/>
   </g>
   <g id="patch_6">
    <path d="M 37.132812 21.12 
L 483.532812 21.12 
" style="fill: none; stroke: #000000; stroke-width: 0.8; stroke-linejoin: miter; stroke-linecap: square"/>
   </g>
   <g id="text_16">
    <!-- Sine Wave - how2matplotlib.com -->
    <g transform="translate(182.774375 15.12) scale(0.12 -0.12)">
     <defs>
      <path id="STFangsong-53" d="M 2406 3053 
Q 2221 3891 1485 3891 
Q 1139 3891 905 3692 
Q 672 3494 672 3226 
Q 672 3014 861 2835 
Q 1050 2656 1645 2349 
Q 2253 2035 2525 1798 
Q 2797 1562 2797 1094 
Q 2797 557 2422 227 
Q 2048 -102 1376 -102 
Q 755 -102 243 198 
L 314 1152 
L 403 1152 
Q 461 678 787 374 
Q 1114 70 1510 70 
Q 1888 70 2147 294 
Q 2406 518 2406 832 
Q 2406 1114 2198 1306 
Q 1990 1498 1510 1747 
Q 845 2093 582 2374 
Q 320 2656 320 3021 
Q 320 3475 672 3769 
Q 1024 4064 1587 4064 
Q 2150 4064 2515 3782 
L 2490 3053 
L 2406 3053 
z
" transform="scale(0.015625)"/>
      <path id="STFangsong-69" d="M 717 4096 
Q 826 4096 915 4013 
Q 1005 3930 1005 3821 
Q 1005 3718 912 3638 
Q 819 3558 704 3558 
Q 595 3558 518 3635 
Q 442 3712 442 3821 
Q 442 3930 525 4013 
Q 608 4096 717 4096 
z
M 1421 -26 
Q 1222 0 717 0 
Q 211 0 13 -26 
L 13 77 
L 371 147 
Q 570 186 570 378 
L 570 1882 
Q 570 2035 493 2105 
Q 416 2176 186 2227 
L 186 2317 
Q 640 2432 851 2778 
L 954 2778 
L 954 358 
Q 954 262 982 217 
Q 1011 173 1094 154 
L 1421 77 
L 1421 -26 
z
" transform="scale(0.015625)"/>
      <path id="STFangsong-6e" d="M 3200 -19 
Q 2867 0 2534 0 
Q 2202 0 1869 -19 
L 1869 83 
L 2221 134 
Q 2362 154 2362 384 
L 2362 1645 
Q 2362 1926 2202 2092 
Q 2042 2259 1766 2259 
Q 1357 2259 966 1869 
L 966 314 
Q 966 211 1120 173 
L 1498 83 
L 1498 -19 
Q 1261 0 806 0 
Q 352 0 115 -19 
L 115 83 
L 454 147 
Q 582 166 582 339 
L 582 1606 
Q 582 1805 502 1875 
Q 422 1946 218 1978 
L 218 2093 
Q 627 2189 864 2669 
L 966 2669 
L 966 2093 
Q 1210 2304 1504 2429 
Q 1798 2554 2022 2554 
Q 2758 2554 2758 1677 
L 2758 403 
Q 2758 282 2790 218 
Q 2822 154 2918 134 
L 3200 83 
L 3200 -19 
z
" transform="scale(0.015625)"/>
      <path id="STFangsong-65" d="M 2477 1606 
L 691 1606 
Q 672 1478 672 1350 
Q 672 851 944 537 
Q 1216 224 1683 224 
Q 1907 224 2092 313 
Q 2278 403 2496 608 
L 2522 454 
Q 2074 -102 1363 -102 
Q 896 -102 582 275 
Q 269 653 269 1190 
Q 269 1779 617 2166 
Q 966 2554 1504 2554 
Q 1914 2554 2186 2294 
Q 2458 2035 2477 1606 
z
M 723 1741 
L 1888 1741 
Q 2061 1741 2061 1875 
Q 2061 2010 1933 2208 
Q 1805 2406 1478 2406 
Q 1197 2406 992 2224 
Q 787 2042 723 1741 
z
" transform="scale(0.015625)"/>
      <path id="STFangsong-20" transform="scale(0.015625)"/>
      <path id="STFangsong-57" d="M 3168 2246 
L 3949 518 
L 4979 3155 
Q 5114 3501 5114 3661 
Q 5114 3834 4954 3866 
L 4691 3917 
L 4691 4019 
Q 4755 4000 5190 4000 
Q 5606 4000 5709 4019 
L 5709 3917 
L 5517 3859 
Q 5421 3827 5369 3769 
Q 5318 3712 5267 3571 
L 3878 -141 
L 3744 -141 
L 2906 1696 
L 2016 -141 
L 1882 -141 
L 454 3398 
Q 333 3693 278 3769 
Q 224 3846 128 3872 
L -58 3917 
L -58 4019 
Q 102 4000 570 4000 
Q 979 4000 1210 4019 
L 1210 3917 
L 909 3859 
Q 858 3853 858 3802 
Q 858 3718 998 3366 
L 2157 448 
L 2822 1875 
L 2157 3405 
Q 2029 3686 1971 3766 
Q 1914 3846 1830 3859 
L 1517 3917 
L 1517 4019 
Q 1696 4000 2515 4000 
Q 2835 4000 2976 4019 
L 2976 3917 
L 2605 3846 
Q 2547 3840 2547 3782 
Q 2547 3712 2688 3373 
L 3078 2445 
L 3584 3571 
Q 3616 3635 3616 3699 
Q 3616 3776 3568 3824 
Q 3520 3872 3469 3878 
L 3251 3917 
L 3251 4019 
Q 3411 4000 3834 4000 
Q 4294 4000 4416 4019 
L 4416 3917 
L 4115 3859 
Q 3898 3814 3782 3565 
L 3168 2246 
z
" transform="scale(0.015625)"/>
      <path id="STFangsong-61" d="M 2554 403 
L 2637 358 
Q 2451 -102 2125 -102 
Q 1926 -102 1814 10 
Q 1702 122 1702 333 
Q 1350 64 1180 -19 
Q 1011 -102 755 -102 
Q 339 -102 339 237 
Q 339 538 707 877 
Q 1075 1216 1715 1453 
L 1715 1888 
Q 1715 2093 1600 2224 
Q 1485 2355 1293 2355 
Q 1069 2355 909 2204 
Q 749 2054 717 1786 
Q 704 1677 611 1600 
Q 518 1523 416 1523 
Q 371 1523 323 1545 
Q 275 1568 275 1619 
Q 275 1709 441 1984 
Q 608 2259 857 2406 
Q 1107 2554 1344 2554 
Q 1741 2554 1920 2397 
Q 2099 2240 2099 1894 
L 2099 595 
Q 2099 448 2108 368 
Q 2118 288 2176 246 
Q 2234 205 2291 205 
Q 2432 205 2554 403 
z
M 1715 653 
L 1715 1312 
Q 1306 1152 1043 889 
Q 781 627 781 410 
Q 781 288 861 208 
Q 941 128 1062 128 
Q 1235 128 1475 304 
Q 1715 480 1715 653 
z
" transform="scale(0.015625)"/>
      <path id="STFangsong-76" d="M 2438 2022 
L 1542 -147 
L 1453 -147 
L 486 2035 
Q 410 2189 365 2233 
Q 320 2278 224 2298 
L -38 2355 
L -38 2458 
Q 109 2438 691 2438 
Q 1242 2438 1414 2458 
L 1414 2355 
L 1018 2291 
Q 896 2272 896 2195 
Q 896 2112 1011 1843 
L 1632 416 
L 2214 1862 
Q 2278 2016 2278 2106 
Q 2278 2278 2016 2317 
L 1766 2355 
L 1766 2458 
Q 1850 2438 2413 2438 
Q 2912 2438 3059 2458 
L 3059 2355 
L 2701 2304 
Q 2598 2291 2553 2243 
Q 2509 2195 2438 2022 
z
" transform="scale(0.015625)"/>
      <path id="STFangsong-2d" d="M 243 1389 
L 1760 1389 
L 1760 1114 
L 243 1114 
L 243 1389 
z
" transform="scale(0.015625)"/>
      <path id="STFangsong-68" d="M 576 3539 
Q 576 3712 496 3779 
Q 416 3846 102 3917 
L 102 3994 
Q 371 4006 806 4224 
L 960 4224 
L 960 1965 
Q 1427 2554 1984 2554 
Q 2323 2554 2531 2323 
Q 2739 2093 2739 1683 
L 2739 301 
Q 2739 237 2764 201 
Q 2790 166 2899 141 
L 3181 77 
L 3181 -26 
Q 2784 0 2566 0 
Q 2342 0 1946 -26 
L 1946 77 
L 2208 147 
Q 2291 173 2326 205 
Q 2362 237 2362 346 
L 2362 1670 
Q 2362 1939 2202 2099 
Q 2042 2259 1760 2259 
Q 1542 2259 1356 2134 
Q 1171 2010 960 1741 
L 960 346 
Q 960 269 982 237 
Q 1005 205 1082 186 
L 1517 77 
L 1517 -26 
Q 1312 0 806 0 
Q 301 0 96 -26 
L 96 77 
L 442 147 
Q 525 166 550 188 
Q 576 211 576 288 
L 576 3539 
z
" transform="scale(0.015625)"/>
      <path id="STFangsong-6f" d="M 1587 -102 
Q 1030 -102 640 269 
Q 250 640 250 1235 
Q 250 1805 640 2179 
Q 1030 2554 1664 2554 
Q 2253 2554 2630 2160 
Q 3008 1766 3008 1184 
Q 3008 653 2608 275 
Q 2208 -102 1587 -102 
z
M 710 1171 
Q 710 640 960 329 
Q 1210 19 1606 19 
Q 2016 19 2281 345 
Q 2547 672 2547 1210 
Q 2547 1760 2297 2096 
Q 2048 2432 1638 2432 
Q 1197 2432 953 2112 
Q 710 1792 710 1171 
z
" transform="scale(0.015625)"/>
      <path id="STFangsong-77" d="M -64 2458 
Q 77 2438 570 2438 
Q 992 2438 1184 2458 
L 1184 2355 
L 928 2317 
Q 806 2291 806 2195 
Q 806 2138 838 2067 
L 1670 326 
L 2182 1363 
L 1933 2022 
Q 1862 2202 1814 2250 
Q 1766 2298 1715 2304 
L 1446 2355 
L 1446 2458 
Q 1626 2438 2131 2438 
Q 2675 2438 2835 2458 
L 2835 2355 
L 2522 2298 
Q 2330 2253 2330 2150 
Q 2330 2106 2362 2022 
L 2989 378 
L 3642 1907 
Q 3680 1990 3680 2067 
Q 3680 2170 3609 2234 
Q 3539 2298 3456 2310 
L 3194 2355 
L 3194 2458 
Q 3334 2438 3750 2438 
Q 4134 2438 4314 2458 
L 4314 2355 
L 4154 2323 
Q 3962 2266 3827 1965 
L 2906 -147 
L 2803 -147 
L 2259 1171 
L 1587 -147 
L 1459 -147 
L 326 2144 
Q 243 2317 83 2336 
L -64 2355 
L -64 2458 
z
" transform="scale(0.015625)"/>
      <path id="STFangsong-6d" d="M 3578 83 
L 3763 122 
Q 3917 154 3981 202 
Q 4045 250 4045 390 
L 4045 1536 
Q 4045 1914 3894 2086 
Q 3744 2259 3424 2259 
Q 3002 2259 2688 1888 
L 2688 442 
Q 2688 307 2713 240 
Q 2739 173 2854 147 
L 3181 77 
L 3181 -26 
Q 2861 0 2502 0 
Q 2125 0 1773 -26 
L 1773 77 
L 1958 122 
Q 2138 166 2218 220 
Q 2298 275 2298 410 
L 2298 1549 
Q 2298 1869 2144 2061 
Q 1990 2253 1747 2253 
Q 1459 2253 1193 2083 
Q 928 1914 928 1741 
L 928 435 
Q 928 282 969 224 
Q 1011 166 1101 147 
L 1427 77 
L 1427 -26 
Q 1107 0 787 0 
Q 454 0 115 -26 
L 115 77 
L 301 115 
Q 442 147 490 204 
Q 538 262 538 397 
L 538 1779 
Q 538 1939 477 2000 
Q 416 2061 192 2093 
L 192 2195 
Q 518 2278 806 2669 
L 928 2669 
L 928 2054 
Q 1210 2310 1430 2432 
Q 1651 2554 1888 2554 
Q 2189 2554 2349 2464 
Q 2509 2374 2669 2086 
Q 2886 2310 3113 2432 
Q 3341 2554 3635 2554 
Q 4013 2554 4224 2326 
Q 4435 2099 4435 1677 
L 4435 384 
Q 4435 147 4538 128 
L 4826 77 
L 4826 -26 
Q 4506 0 4218 0 
Q 3834 0 3578 -19 
L 3578 83 
z
" transform="scale(0.015625)"/>
      <path id="STFangsong-74" d="M 979 3085 
L 1056 3085 
L 1062 2400 
L 1933 2419 
L 1933 2189 
L 1062 2163 
L 1062 640 
Q 1062 352 1142 224 
Q 1222 96 1402 96 
Q 1619 96 1926 275 
L 1984 186 
Q 1850 32 1674 -35 
Q 1498 -102 1197 -102 
Q 864 -102 761 61 
Q 659 224 659 704 
L 659 2150 
L 314 2144 
Q 224 2144 224 2195 
Q 224 2240 307 2278 
Q 582 2394 707 2544 
Q 832 2694 979 3085 
z
" transform="scale(0.015625)"/>
      <path id="STFangsong-70" d="M 890 2157 
Q 1446 2554 1965 2554 
Q 2445 2554 2739 2211 
Q 3034 1869 3034 1293 
Q 3034 710 2643 304 
Q 2253 -102 1645 -102 
Q 1280 -102 890 83 
L 890 -1274 
Q 890 -1357 944 -1405 
Q 998 -1453 1158 -1478 
L 1542 -1542 
L 1542 -1645 
Q 1293 -1619 806 -1619 
Q 403 -1619 77 -1645 
L 77 -1542 
L 346 -1491 
Q 442 -1472 470 -1430 
Q 499 -1389 499 -1267 
L 499 1939 
Q 499 2170 416 2182 
L 102 2234 
L 122 2323 
Q 442 2458 573 2547 
Q 704 2637 794 2784 
L 890 2784 
L 890 2157 
z
M 890 1965 
L 890 563 
Q 890 333 1101 182 
Q 1312 32 1645 32 
Q 2054 32 2323 336 
Q 2592 640 2592 1075 
Q 2592 1632 2355 1945 
Q 2118 2259 1722 2259 
Q 1331 2259 890 1965 
z
" transform="scale(0.015625)"/>
      <path id="STFangsong-6c" d="M 1453 -19 
Q 1139 0 742 0 
Q 346 0 32 -19 
L 32 83 
L 429 160 
Q 512 179 544 211 
Q 576 243 576 339 
L 576 3590 
Q 576 3725 499 3789 
Q 422 3853 160 3930 
L 160 4013 
Q 403 4064 819 4224 
L 966 4224 
L 966 352 
Q 966 230 992 195 
Q 1018 160 1114 141 
L 1453 83 
L 1453 -19 
z
" transform="scale(0.015625)"/>
      <path id="STFangsong-62" d="M 102 3930 
L 122 4026 
L 941 4224 
L 941 2330 
Q 1459 2554 1856 2554 
Q 2374 2554 2700 2189 
Q 3027 1824 3027 1267 
Q 3027 640 2643 269 
Q 2259 -102 1709 -102 
Q 1427 -102 1165 13 
Q 922 122 877 122 
Q 774 122 634 -134 
L 538 -134 
L 538 3405 
Q 538 3654 467 3737 
Q 397 3821 102 3930 
z
M 941 691 
Q 941 410 1117 246 
Q 1293 83 1594 83 
Q 2560 83 2560 1146 
Q 2560 1664 2285 2003 
Q 2010 2342 1587 2342 
Q 1312 2342 1126 2265 
Q 941 2189 941 2086 
L 941 691 
z
" transform="scale(0.015625)"/>
      <path id="STFangsong-63" d="M 2496 570 
L 2502 371 
Q 2266 122 2029 10 
Q 1792 -102 1459 -102 
Q 960 -102 624 288 
Q 288 678 288 1261 
Q 288 1894 640 2224 
Q 992 2554 1670 2554 
Q 2022 2554 2243 2451 
Q 2464 2349 2464 2176 
Q 2464 2086 2403 2016 
Q 2342 1946 2240 1946 
Q 2074 1946 1882 2138 
Q 1670 2349 1440 2349 
Q 1165 2349 957 2051 
Q 749 1754 749 1306 
Q 749 794 1017 493 
Q 1286 192 1651 192 
Q 2067 192 2496 570 
z
" transform="scale(0.015625)"/>
     </defs>
     <use xlink:href="#STFangsong-53"/>
     <use xlink:href="#STFangsong-69" x="47.899994"/>
     <use xlink:href="#STFangsong-6e" x="70.799988"/>
     <use xlink:href="#STFangsong-65" x="121.799973"/>
     <use xlink:href="#STFangsong-20" x="163.499969"/>
     <use xlink:href="#STFangsong-57" x="188.499954"/>
     <use xlink:href="#STFangsong-61" x="276.999939"/>
     <use xlink:href="#STFangsong-76" x="317.59993"/>
     <use xlink:href="#STFangsong-65" x="364.499924"/>
     <use xlink:href="#STFangsong-20" x="406.199921"/>
     <use xlink:href="#STFangsong-2d" x="431.199905"/>
     <use xlink:href="#STFangsong-20" x="462.499893"/>
     <use xlink:href="#STFangsong-68" x="487.499878"/>
     <use xlink:href="#STFangsong-6f" x="538.499863"/>
     <use xlink:href="#STFangsong-77" x="589.499847"/>
     <use xlink:href="#STFangsong-32" x="656.199844"/>
     <use xlink:href="#STFangsong-6d" x="703.099838"/>
     <use xlink:href="#STFangsong-61" x="780.199829"/>
     <use xlink:href="#STFangsong-74" x="820.79982"/>
     <use xlink:href="#STFangsong-70" x="849.999817"/>
     <use xlink:href="#STFangsong-6c" x="900.999802"/>
     <use xlink:href="#STFangsong-6f" x="923.899796"/>
     <use xlink:href="#STFangsong-74" x="974.89978"/>
     <use xlink:href="#STFangsong-6c" x="1004.099777"/>
     <use xlink:href="#STFangsong-69" x="1026.999771"/>
     <use xlink:href="#STFangsong-62" x="1049.899765"/>
     <use xlink:href="#STFangsong-2e" x="1100.89975"/>
     <use xlink:href="#STFangsong-63" x="1122.799744"/>
     <use xlink:href="#STFangsong-6f" x="1164.499741"/>
     <use xlink:href="#STFangsong-6d" x="1215.499725"/>
    </g>
   </g>
  </g>
 </g>
 <defs>
  <clipPath id="p7ec7bf813a">
   <rect x="37.132812" y="21.12" width="446.4" height="332.64"/>
  </clipPath>
 </defs>
</svg>
